<svg width="64" height="64" viewBox="0 0 64 64" fill="none" xmlns="http://www.w3.org/2000/svg">
<rect x="0.5" y="0.5" width="63" height="63" rx="31.5" fill="#030A1B"/>
<rect x="0.5" y="0.5" width="63" height="63" rx="31.5" stroke="#228EE5"/>
<path d="M34.9668 20.8333C34.2696 20.8333 33.5765 20.9463 32.915 21.1673L28.7725 22.5511C28.2132 22.7379 27.6275 22.8333 27.0381 22.8333H25.3926L25.2441 23.0589C24.1536 24.7159 23.5186 26.7011 23.5186 28.8333C23.5186 30.9657 24.1534 32.9516 25.2441 34.6087L25.3926 34.8333H25.8574C26.7392 34.8333 27.5734 35.325 28.166 36.0823C29.237 37.4511 30.5873 38.5904 32.1309 39.4144C33.0225 39.8903 33.7529 40.5745 34.1006 41.4456C34.3598 42.0953 34.4931 42.7888 34.4932 43.4886V44.3333C34.4932 45.1606 35.1621 45.8332 35.9902 45.8333C37.9204 45.8333 39.4834 44.2652 39.4834 42.3333C39.4834 40.7221 39.1207 39.1941 38.4727 37.8284C38.3714 37.6148 38.3885 37.3566 38.502 37.1487C38.5992 36.9706 38.7461 36.8623 38.9131 36.8382L38.9863 36.8333H43.1436C44.7184 36.8333 46.1977 35.7589 46.374 34.0999C46.4357 33.5194 46.4668 32.9299 46.4668 32.3333C46.4668 28.4186 45.1061 24.8207 42.833 21.9915C42.2095 21.2155 41.2598 20.8333 40.3086 20.8333L34.9668 20.8333ZM21.3486 21.8333C19.9834 21.8334 18.6662 22.635 18.2471 24.012C17.7827 25.5377 17.5332 27.1568 17.5332 28.8333C17.5332 30.9669 17.9374 33.0071 18.6738 34.8802C19.1664 36.1328 20.4115 36.8333 21.6904 36.8333H23.0908C24.1642 36.8331 24.6814 35.6168 24.1836 34.7952C23.1303 33.0572 22.5234 31.017 22.5234 28.8333C22.5234 27.0079 22.9472 25.2831 23.7012 23.7513C24.1055 22.9299 23.5669 21.8334 22.5566 21.8333H21.3486Z" stroke="#EBFAFF"/>
</svg>
