<svg width="64" height="64" viewBox="0 0 64 64" fill="none" xmlns="http://www.w3.org/2000/svg">
<rect x="0.5" y="0.5" width="63" height="63" rx="31.5" fill="#030A1B"/>
<rect x="0.5" y="0.5" width="63" height="63" rx="31.5" stroke="#228EE5"/>
<path d="M23.0908 28.1667C24.1644 28.1668 24.6815 29.3831 24.1836 30.2048C23.1303 31.9428 22.5234 33.983 22.5234 36.1667C22.5234 37.9922 22.9481 39.7169 23.7021 41.2487C24.1064 42.0701 23.567 43.1667 22.5566 43.1667H21.3496C19.9843 43.1667 18.6663 42.3652 18.2471 40.988C17.7827 39.4623 17.5332 37.8432 17.5332 36.1667C17.5332 34.0331 17.9374 31.9929 18.6738 30.1198C19.1663 28.8672 20.4115 28.1667 21.6904 28.1667H23.0908ZM35.9902 18.1667C37.9204 18.1667 39.4834 19.7348 39.4834 21.6667C39.4834 23.2779 39.1207 24.8059 38.4727 26.1716C38.3714 26.3852 38.3885 26.6435 38.502 26.8513C38.6131 27.0549 38.7897 27.1667 38.9863 27.1667H43.1436C44.7183 27.1667 46.1977 28.2411 46.374 29.9001C46.4357 30.4806 46.4668 31.0701 46.4668 31.6667C46.4668 35.5814 45.1061 39.1793 42.833 42.0085C42.2094 42.7844 41.2598 43.1667 40.3086 43.1667H34.9668C34.2696 43.1667 33.5765 43.0537 32.915 42.8327L28.7725 41.4489C28.2132 41.2621 27.6275 41.1667 27.0381 41.1667H26.0049C25.2616 41.1667 24.5335 40.7496 24.2422 40.0075C23.7753 38.8174 23.5186 37.5212 23.5186 36.1667C23.5186 33.7189 24.3551 31.4652 25.7568 29.6794C26.0412 29.3171 26.4378 29.1208 26.7676 28.9929C27.3007 28.7859 27.7863 28.4042 28.167 27.9177C29.2379 26.5491 30.5875 25.4095 32.1309 24.5856C33.0225 24.1097 33.7529 23.4255 34.1006 22.5544C34.3598 21.9047 34.4931 21.2112 34.4932 20.5114V19.6667C34.4932 18.8395 35.1622 18.1669 35.9902 18.1667Z" stroke="#EBFAFF"/>
</svg>
